<svg width="20" height="20" viewBox="0 0 20 20" fill="none" xmlns="http://www.w3.org/2000/svg">
<path d="M19.575 10.2257C19.575 9.56732 19.5167 8.94232 19.4167 8.33398H10V12.0923H15.3917C15.15 13.3257 14.4417 14.3673 13.3917 15.0757V17.5757H16.6083C18.4917 15.834 19.575 13.2673 19.575 10.2257Z" fill="#4285F4"/>
<path d="M10.0001 19.9999C12.7001 19.9999 14.9584 19.0999 16.6084 17.5749L13.3917 15.0749C12.4917 15.6749 11.3501 16.0415 10.0001 16.0415C7.39174 16.0415 5.18341 14.2832 4.39174 11.9082H1.07507V14.4832C2.71674 17.7499 6.09174 19.9999 10.0001 19.9999Z" fill="#34A853"/>
<path d="M4.39167 11.9092C4.18333 11.3092 4.075 10.6676 4.075 10.0009C4.075 9.33424 4.19167 8.69258 4.39167 8.09258V5.51758H1.075C0.391666 6.86758 0 8.38424 0 10.0009C0 11.6176 0.391666 13.1342 1.075 14.4842L4.39167 11.9092Z" fill="#FBBC05"/>
<path d="M10.0001 3.95833C11.4751 3.95833 12.7917 4.46667 13.8334 5.45834L16.6834 2.60833C14.9584 0.991668 12.7001 0 10.0001 0C6.09174 0 2.71674 2.25 1.07507 5.51667L4.39174 8.09167C5.18341 5.71667 7.39174 3.95833 10.0001 3.95833Z" fill="#EA4335"/>
</svg>
